<svg width="80" height="61" viewBox="0 0 80 61" fill="none" xmlns="http://www.w3.org/2000/svg">
<path d="M80 28.9983V31.675C79.9733 31.8216 79.9433 31.965 79.9267 32.1083C79.7933 33.275 79.7033 34.445 79.5133 35.6016C78.9024 39.3171 77.5708 42.8773 75.5933 46.0816C72.6933 50.8964 68.4778 54.7823 63.4433 57.2816C60.5075 58.7598 57.3349 59.7109 54.07 60.0916C53.3467 60.1783 52.62 60.255 51.8967 60.335H23.7933C23.65 60.3083 23.51 60.2683 23.3667 60.255C20.5495 60.083 17.7859 59.4079 15.2067 58.2616C9.55 55.745 5.33 51.6616 2.57 46.0483C1.34879 43.5667 0.559704 40.8951 0.236667 38.1483L0 36.1416V33.5416C0.0266667 33.3983 0.0666667 33.255 0.0766667 33.1083C0.214979 30.6272 0.733234 28.1821 1.61333 25.8583C4 19.5916 8.16667 14.9383 14.0733 11.9283C17.109 10.3932 20.4353 9.5185 23.8333 9.36163C25.5071 9.2829 27.1845 9.36214 28.8433 9.59829C28.9288 9.60596 29.0148 9.59601 29.0963 9.56906C29.1777 9.54211 29.2527 9.49874 29.3167 9.44163C31.6798 6.97357 34.4517 4.93243 37.51 3.40829C40.46 1.92406 43.6469 0.967414 46.9267 0.581627C47.7067 0.491627 48.4833 0.414961 49.26 0.334961H51.66C51.8133 0.358294 51.9733 0.388294 52.1267 0.404961C53.3167 0.548294 54.51 0.638294 55.6867 0.838294C59.3293 1.46457 62.8111 2.80837 65.93 4.79163C70.7216 7.77888 74.56 12.073 76.9933 17.1683C78.4536 20.1669 79.3894 23.3936 79.76 26.7083C79.8467 27.4716 79.92 28.235 80 28.9983ZM35.2667 11.665C35.3167 11.7316 35.33 11.7616 35.35 11.7716C36.9933 12.595 38.5667 13.565 40.05 14.6616C40.1433 14.7283 40.3767 14.7016 40.49 14.6283C44.5633 12.005 48.98 11.0983 53.7233 11.955C58.3733 12.7916 62.1567 15.155 65.0467 18.9283C68.32 23.195 69.57 28.0283 68.6667 33.395C68.06 36.995 66.64 40.2283 64.2333 42.9316C59.8333 47.865 54.3233 49.905 47.84 49.0416C43.85 48.5083 40.4067 46.7583 37.5533 43.8283C33.8933 40.0683 30.2067 36.335 26.5367 32.585C26.0467 32.085 25.5033 31.685 24.8 31.595C24.2116 31.5155 23.6133 31.6283 23.0943 31.9167C22.5753 32.205 22.1634 32.6534 21.92 33.195C21.4467 34.195 21.5067 35.3283 22.5367 36.355C26.6267 40.4416 30.6833 44.5616 34.77 48.655C35.47 49.355 36.22 50.005 37.0167 50.595C40.0033 52.7983 43.37 54.0183 47.0167 54.5083C49.8767 54.895 52.7167 54.8083 55.5333 54.1683C60.9067 52.9383 65.36 50.1516 68.8667 45.845C71.7344 42.343 73.5553 38.1026 74.12 33.6116C74.4743 30.995 74.4011 28.3381 73.9033 25.745C73.09 21.5116 71.3267 17.7183 68.5033 14.4883C63.11 8.33496 56.3267 5.58829 48.2567 6.19829C45.1708 6.45291 42.1722 7.34988 39.4533 8.83163C37.9599 9.62101 36.5572 10.5711 35.27 11.665H35.2667ZM33.2933 54.635C33.1818 54.531 33.0707 54.4266 32.96 54.3216C31.29 52.715 29.6067 51.1216 27.9533 49.4916C27.821 49.3406 27.6564 49.2212 27.4718 49.1422C27.2873 49.0632 27.0873 49.0265 26.8867 49.035C25.2133 49.075 23.5367 49.0816 21.8867 48.7016C13.6833 46.8183 8.92 37.7483 11.9433 29.7683C14.3267 23.4716 20.93 19.6416 27.44 20.8216C30.3567 21.3516 32.92 22.6083 35.02 24.8116C37.5867 27.505 40.2267 30.1183 42.82 32.7816C43.4067 33.3883 44.0867 33.665 44.9033 33.5483C45.9567 33.395 46.8 32.8816 47.18 31.8283C47.5533 30.795 47.3733 29.8116 46.6033 29.015C43.8833 26.215 41.2267 23.3416 38.3967 20.6583C32.9067 15.455 26.4367 13.905 19.2767 16.1183C9.65 19.095 4.01333 29.205 6.21333 39.1816C8.22 48.2716 16.0367 54.6483 25.1833 54.6583H32.8467C32.9733 54.6583 33.1 54.645 33.2933 54.635Z" fill="#FA0C00"/>
</svg>
