<svg width="62" height="61" viewBox="0 0 62 61" fill="none" xmlns="http://www.w3.org/2000/svg">
<g clip-path="url(#clip0_66_110)">
<path d="M50.8919 60.335H11.1085C5.07686 60.335 0.200195 55.4632 0.200195 49.4375V11.2324C0.200195 5.20676 5.07686 0.334961 11.1085 0.334961H50.8919C56.9235 0.334961 61.8002 5.20676 61.8002 11.2324V49.4375C61.8002 55.4632 56.9235 60.335 50.8919 60.335Z" fill="#9A97FE"/>
<path d="M49.9168 57.771H12.0841C6.95076 57.771 2.76709 53.5915 2.76709 48.4633V12.2069C2.76709 7.07866 6.95076 2.89917 12.0841 2.89917H49.8911C55.0501 2.89917 59.2081 7.07866 59.2081 12.2069V48.4376C59.2338 53.5915 55.0501 57.771 49.9168 57.771Z" fill="#01005D"/>
<path d="M46.9853 34.8719H38.6488C38.772 37.7466 40.6611 40.0463 44.8499 40.0463C46.6979 40.0463 48.3816 39.7178 49.9421 39.0607C50.0653 38.9786 50.1885 39.0197 50.1885 39.225V42.6335C50.1885 42.8799 50.1064 43.0031 49.9421 43.0853C48.3816 43.8245 46.5747 44.2762 43.7821 44.2762C36.308 44.2762 33.6387 39.0197 33.6387 33.9685C33.6387 28.2602 37.0883 23.209 43.2893 23.209C49.3672 23.209 51.708 27.9727 51.708 31.8741C51.708 33.0239 51.6669 33.9685 51.5437 34.4202C51.5027 34.5845 51.4205 34.6666 51.2152 34.7077C50.6403 34.8309 48.9976 34.8719 46.9853 34.8719ZM38.6488 31.3402H44.7677C46.3283 31.3402 46.8621 31.3402 47.0264 31.2991C47.0264 31.1759 47.0264 31.0117 47.0264 30.9706C47.0264 29.7797 46.2051 27.1514 43.084 27.1514C40.2504 27.1514 38.9773 29.3279 38.6488 31.3402Z" fill="#9A97FE"/>
<path d="M26.1463 36.761H16.3314L14.0727 43.537C13.9906 43.7834 13.8674 43.8656 13.621 43.8656H9.51435C9.26795 43.8656 9.18581 43.7424 9.22688 43.4549L17.6866 19.3898C17.8509 18.9792 17.9741 18.5685 18.0562 17.1722C18.0562 17.008 18.1383 16.8848 18.3026 16.8848H24.0109C24.2162 16.8848 24.2573 16.9258 24.2983 17.1312L33.7847 43.496C33.8258 43.7424 33.7847 43.8656 33.5383 43.8656H28.9389C28.7335 43.8656 28.6103 43.7834 28.5282 43.6192L26.1463 36.761ZM17.6455 32.2848H24.8322C23.9698 29.5744 22.0397 23.8661 21.2183 20.9914H21.1773C20.5202 23.7429 18.8775 28.5477 17.6455 32.2848Z" fill="#9A97FE"/>
</g>
<defs>
<clipPath id="clip0_66_110">
<rect width="61.6" height="60" fill="white" transform="translate(0.200195 0.334961)"/>
</clipPath>
</defs>
</svg>
