<svg width="134" height="40" viewBox="0 0 134 40" fill="none" xmlns="http://www.w3.org/2000/svg">
<g clip-path="url(#clip0_66_134)">
<path fill-rule="evenodd" clip-rule="evenodd" d="M83.1024 31.2813C75.3799 36.9667 64.1867 40.0001 54.5495 40.0001C41.0366 40.0001 28.8715 35.008 19.6682 26.7053C18.9451 26.0524 19.5929 25.1626 20.4606 25.671C30.3929 31.4431 42.6736 34.9156 55.3593 34.9156C63.9148 34.9156 73.3264 33.1475 81.9802 29.4786C83.2875 28.9239 84.3808 30.3337 83.1024 31.2813Z" fill="#333333"/>
<path fill-rule="evenodd" clip-rule="evenodd" d="M86.3128 27.6125C85.3294 26.353 79.7878 27.0174 77.3004 27.3121C76.5426 27.4045 76.4269 26.7458 77.1095 26.2721C81.5232 23.1694 88.7655 24.0649 89.6101 25.1049C90.4546 26.1507 89.3903 33.4019 85.2427 36.8628C84.6064 37.3944 83.999 37.1113 84.2824 36.4064C85.2137 34.0837 87.302 28.8779 86.3128 27.6125Z" fill="#333333"/>
<path fill-rule="evenodd" clip-rule="evenodd" d="M77.4739 4.36806V1.35203C77.4739 0.895581 77.821 0.589355 78.2375 0.589355H91.7562C92.1901 0.589355 92.5371 0.901359 92.5371 1.35203V3.93472C92.5313 4.36806 92.1669 4.93429 91.519 5.82985L84.5138 15.8197C87.1169 15.7562 89.8646 16.1433 92.2248 17.4722C92.7569 17.7726 92.9016 18.2118 92.9421 18.6451V21.8634C92.9421 22.3025 92.4561 22.8167 91.9471 22.5509C87.7879 20.3727 82.2636 20.1358 77.6648 22.574C77.1963 22.8283 76.7046 22.3198 76.7046 21.8807V18.8242C76.7046 18.3331 76.7104 17.4953 77.2021 16.75L85.3179 5.12496H78.2549C77.821 5.12496 77.4739 4.81873 77.4739 4.36806Z" fill="#333333"/>
<path fill-rule="evenodd" clip-rule="evenodd" d="M28.16 23.1864H24.0472C23.6538 23.1575 23.3414 22.8628 23.3125 22.4873V1.40394C23.3125 0.98216 23.6654 0.647043 24.105 0.647043H27.9402C28.3393 0.664365 28.6575 0.970601 28.6864 1.35194V4.10797H28.7616C29.7624 1.44438 31.6424 0.202148 34.176 0.202148C36.7502 0.202148 38.3583 1.44438 39.5153 4.10797C40.5102 1.44438 42.772 0.202148 45.1958 0.202148C46.9196 0.202148 48.8054 0.912822 49.9565 2.50751C51.2581 4.2813 50.992 6.85822 50.992 9.11735L50.9862 22.4237C50.9862 22.8455 50.6333 23.1864 50.1937 23.1864H46.0866C45.6759 23.1575 45.3462 22.8282 45.3462 22.4237V11.2494C45.3462 10.3596 45.4272 8.1409 45.2305 7.29733C44.9239 5.88177 44.0041 5.48309 42.8125 5.48309C41.8175 5.48309 40.7763 6.14754 40.354 7.21067C39.9317 8.27379 39.9722 10.0534 39.9722 11.2494V22.4237C39.9722 22.8455 39.6194 23.1864 39.1797 23.1864H35.0727C34.6562 23.1575 34.3322 22.8282 34.3322 22.4237L34.3264 11.2494C34.3264 8.8978 34.714 5.43687 31.7928 5.43687C28.8368 5.43687 28.9525 8.81112 28.9525 11.2494V22.4237C28.9525 22.8455 28.5997 23.1864 28.16 23.1864Z" fill="#333333"/>
<path fill-rule="evenodd" clip-rule="evenodd" d="M104.176 0.202148C110.279 0.202148 113.582 5.43687 113.582 12.0929C113.582 18.5237 109.932 23.6255 104.176 23.6255C98.1829 23.6255 94.9204 18.3908 94.9204 11.8676C94.9204 5.30398 98.2234 0.202148 104.176 0.202148ZM104.211 4.50664C101.179 4.50664 100.988 8.63201 100.988 11.2032C100.988 13.7801 100.948 19.2806 104.176 19.2806C107.363 19.2806 107.514 14.8432 107.514 12.1392C107.514 10.3596 107.438 8.23334 106.9 6.54621C106.438 5.07865 105.518 4.50664 104.211 4.50664Z" fill="#333333"/>
<path fill-rule="evenodd" clip-rule="evenodd" d="M121.495 23.1864H117.4C116.989 23.1575 116.659 22.8282 116.659 22.4237L116.653 1.3346C116.688 0.947489 117.029 0.647043 117.446 0.647043H121.258C121.617 0.664365 121.912 0.907046 121.993 1.23638V4.46041H122.068C123.219 1.57727 124.833 0.202148 127.673 0.202148C129.518 0.202148 131.317 0.866601 132.474 2.68662C133.55 4.37375 133.55 7.21067 133.55 9.25024V22.5219C133.504 22.8917 133.163 23.1864 132.758 23.1864H128.633C128.257 23.1575 127.945 22.8802 127.904 22.5219V11.0703C127.904 8.7649 128.171 5.39065 125.33 5.39065C124.33 5.39065 123.41 6.06088 122.953 7.07777C122.374 8.36623 122.299 9.64891 122.299 11.0703V22.4237C122.293 22.8455 121.935 23.1864 121.495 23.1864Z" fill="#333333"/>
<path fill-rule="evenodd" clip-rule="evenodd" d="M66.6969 13.1157C66.6969 14.7162 66.7374 16.0508 65.9276 17.4722C65.2739 18.6278 64.2327 19.3384 63.0815 19.3384C61.5023 19.3384 60.5768 18.1366 60.5768 16.3628C60.5768 12.8615 63.7178 12.2259 66.6969 12.2259V13.1157ZM70.8445 23.1287C70.5726 23.3714 70.1793 23.3887 69.8727 23.2269C68.5075 22.0945 68.2588 21.5687 67.5126 20.4882C65.2566 22.7878 63.6542 23.4754 60.733 23.4754C57.268 23.4754 54.5781 21.3433 54.5781 17.0735C54.5781 13.7397 56.3829 11.469 58.9629 10.3597C61.1957 9.37743 64.3137 9.2041 66.6969 8.93254V8.40098C66.6969 7.42452 66.7721 6.26895 66.1937 5.42539C65.6962 4.66849 64.7359 4.35649 63.8856 4.35649C62.318 4.35649 60.9239 5.15961 60.5826 6.82363C60.5132 7.19341 60.2413 7.55741 59.8653 7.57475L55.8797 7.14718C55.5442 7.07208 55.1682 6.80051 55.2665 6.28629C56.1805 1.45602 60.5537 0 64.4641 0C66.4655 0 69.0802 0.531562 70.6594 2.04535C72.6609 3.9116 72.47 6.40184 72.47 9.11165V15.5135C72.47 17.4375 73.2683 18.2811 74.0203 19.3211C74.2806 19.6909 74.3384 20.1358 74.0029 20.4131C73.1641 21.1122 71.6717 22.4122 70.8503 23.1402L70.8445 23.1287Z" fill="#333333"/>
<path fill-rule="evenodd" clip-rule="evenodd" d="M12.7785 13.1157C12.7785 14.7162 12.819 16.0508 12.0091 17.4722C11.3554 18.6278 10.32 19.3384 9.16308 19.3384C7.58387 19.3384 6.66412 18.1366 6.66412 16.3628C6.66412 12.8615 9.80517 12.2259 12.7785 12.2259V13.1157ZM16.9261 23.1287C16.6542 23.3714 16.2608 23.3887 15.9542 23.2269C14.5891 22.0945 14.3461 21.5687 13.5941 20.4882C11.3381 22.7878 9.74154 23.4754 6.81451 23.4754C3.3553 23.4754 0.659668 21.3433 0.659668 17.0735C0.659668 13.7397 2.47026 11.469 5.04442 10.3597C7.27729 9.37743 10.3952 9.2041 12.7785 8.93254V8.40098C12.7785 7.42452 12.8537 6.26895 12.281 5.42539C11.7777 4.66849 10.8175 4.35649 9.97292 4.35649C8.40529 4.35649 7.00541 5.15961 6.66412 6.82363C6.5947 7.19341 6.32282 7.55741 5.95261 7.57475L1.96121 7.14718C1.6257 7.07208 1.25548 6.80051 1.34804 6.28629C2.2678 1.45602 6.63519 0 10.5456 0C12.5471 0 15.1617 0.531562 16.7409 2.04535C18.7424 3.9116 18.5515 6.40184 18.5515 9.11165V15.5135C18.5515 17.4375 19.3498 18.2811 20.1018 19.3211C20.3679 19.6909 20.4258 20.1358 20.0902 20.4131C19.2515 21.1122 17.759 22.4122 16.9376 23.1402L16.9261 23.1287Z" fill="#333333"/>
</g>
<defs>
<clipPath id="clip0_66_134">
<rect width="132.89" height="40" fill="white" transform="translate(0.659668)"/>
</clipPath>
</defs>
</svg>
