<svg width="80" height="66" viewBox="0 0 80 66" fill="none" xmlns="http://www.w3.org/2000/svg">
<path d="M31.4697 36.2512C31.7612 31.023 34.3077 26.4169 38.1495 23.1517C41.917 19.9446 46.988 17.9844 52.521 17.9844C58.0485 17.9844 63.1196 19.9446 66.8898 23.1517C70.7288 26.4169 73.2753 31.0231 73.5696 36.2457C73.8611 41.6177 71.7133 46.6081 67.9458 50.3074C64.1041 54.0702 58.6398 56.4313 52.521 56.4313C46.4022 56.4313 40.927 54.0702 37.088 50.3074C33.3177 46.6081 31.1755 41.6176 31.4697 36.2512Z" fill="#181818"/>
<path d="M41.7042 36.7229C41.8538 34.0403 43.1604 31.6769 45.1316 30.0015C47.0648 28.3559 49.6667 27.3501 52.5058 27.3501C55.342 27.3501 57.9439 28.3559 59.8785 30.0015C61.8483 31.6769 63.1549 34.0403 63.3059 36.7201C63.4555 39.4765 62.3535 42.0371 60.4203 43.9352C58.4491 45.866 55.6453 47.0775 52.5058 47.0775C49.3662 47.0775 46.5568 45.866 44.587 43.9352C42.6524 42.0371 41.5532 39.4765 41.7042 36.7229Z" fill="#265787"/>
<path d="M24.5034 42.1561C24.5217 43.2059 24.8547 45.2459 25.3542 46.839C26.404 50.211 28.1848 53.3306 30.6626 56.0798C33.2053 58.9057 36.3364 61.1756 39.9529 62.7871C43.7543 64.4795 47.8731 65.342 52.1514 65.335C56.4226 65.3293 60.5415 64.4497 64.3428 62.7445C67.9594 61.1174 71.0876 58.8377 73.6261 56.0104C76.1025 53.2497 77.8804 50.1245 78.933 46.7524C79.4622 45.0487 79.7966 43.3194 79.9307 41.5844C80.0619 39.875 80.0069 38.1627 79.7656 36.4518C79.2943 33.118 78.1471 29.99 76.3804 27.1386C74.7648 24.5184 72.6821 22.2245 70.2057 20.2937L70.2114 20.2895L45.2203 0.997619C45.1978 0.980595 45.1794 0.962181 45.1554 0.946576C43.5158 -0.318834 40.7586 -0.314571 38.9553 0.953676C37.1322 2.23611 36.9234 4.35692 38.5461 5.69468L38.539 5.70178L48.9624 14.2235L17.1927 14.2575H17.1504C14.5245 14.2603 12.0001 15.9925 11.5006 18.1814C10.987 20.4115 12.7705 22.2613 15.5009 22.2713L15.4967 22.2812L31.5995 22.25L2.86497 44.4245C2.82828 44.4514 2.78877 44.4798 2.7549 44.5068C0.0442841 46.5935 -0.831955 50.0635 0.87541 52.2595C2.60817 54.4924 6.29241 54.4967 9.03125 52.2723L24.7136 39.3685C24.7136 39.3685 24.485 41.1106 24.5034 42.1561ZM64.8014 47.9894C61.5701 51.2991 57.0463 53.176 52.1514 53.1859C47.2494 53.1944 42.7256 51.3346 39.4943 48.0306C37.9153 46.4205 36.7555 44.5678 36.0401 42.5945C35.3388 40.6552 35.0664 38.5968 35.2471 36.5199C35.4178 34.4899 36.0189 32.5534 36.9784 30.8014C37.921 29.0792 39.2192 27.523 40.8221 26.2065C43.9631 23.6332 47.962 22.2401 52.1443 22.2344C56.3309 22.2287 60.327 23.609 63.4708 26.1739C65.0709 27.4847 66.3677 29.0353 67.3103 30.7546C68.274 32.5052 68.8709 34.4345 69.0487 36.4702C69.2265 38.5443 68.9541 40.5999 68.2528 42.5406C67.536 44.5195 66.3804 46.3722 64.8014 47.9894Z" fill="#EA7600"/>
</svg>
