<svg width="40" height="61" viewBox="0 0 40 61" fill="none" xmlns="http://www.w3.org/2000/svg">
<g clip-path="url(#clip0_66_85)">
<path d="M20 30.335C20 24.8684 24.4315 20.4368 29.8982 20.4368C35.3647 20.4368 39.7964 24.8684 39.7964 30.335C39.7964 35.8016 35.3647 40.2332 29.8982 40.2332C24.4315 40.2332 20 35.8016 20 30.335Z" fill="#1ABCFE"/>
<path d="M0.203613 50.1313C0.203613 44.6648 4.63518 40.2332 10.1018 40.2332H20V50.1313C20 55.598 15.5685 60.0295 10.1018 60.0295C4.63518 60.0295 0.203613 55.598 0.203613 50.1313Z" fill="#0ACF83"/>
<path d="M20 0.640381V20.4367H29.8982C35.3649 20.4367 39.7964 16.0052 39.7964 10.5386C39.7964 5.07196 35.3649 0.640381 29.8982 0.640381H20Z" fill="#FF7262"/>
<path d="M0.203613 10.5386C0.203613 16.0052 4.63518 20.4367 10.1018 20.4367H20V0.640381H10.1018C4.63518 0.640381 0.203613 5.07195 0.203613 10.5386Z" fill="#F24E1E"/>
<path d="M0.203613 30.335C0.203613 35.8016 4.63518 40.2332 10.1018 40.2332H20V20.4368H10.1018C4.63518 20.4368 0.203613 24.8684 0.203613 30.335Z" fill="#A259FF"/>
</g>
<defs>
<clipPath id="clip0_66_85">
<rect width="40" height="60" fill="white" transform="translate(0 0.334961)"/>
</clipPath>
</defs>
</svg>
