<svg width="63" height="61" viewBox="0 0 63 61" fill="none" xmlns="http://www.w3.org/2000/svg">
<g clip-path="url(#clip0_66_103)">
<path d="M51.2918 60.335H11.5084C5.47676 60.335 0.600098 55.4632 0.600098 49.4375V11.2324C0.600098 5.20676 5.47676 0.334961 11.5084 0.334961H51.2918C57.3234 0.334961 62.2001 5.20676 62.2001 11.2324V49.4375C62.2001 55.4632 57.3234 60.335 51.2918 60.335Z" fill="#FE9900"/>
<path d="M50.3167 57.771H12.484C7.35066 57.771 3.16699 53.5915 3.16699 48.4633V12.2069C3.16699 7.07866 7.35066 2.89917 12.484 2.89917H50.291C55.45 2.89917 59.608 7.07866 59.608 12.2069V48.4376C59.6337 53.5915 55.45 57.771 50.3167 57.771Z" fill="#330102"/>
<path d="M40.7484 43.4961V23.9073C40.7484 23.702 40.8716 23.6198 41.0769 23.6198H45.43C45.6764 23.6198 45.7585 23.6609 45.7585 23.9073V43.5372C45.7585 43.7836 45.6764 43.8657 45.3889 43.8657H41.1591C40.8716 43.8657 40.7484 43.7425 40.7484 43.4961ZM43.2535 20.8684C41.5697 20.8684 40.4609 19.7185 40.4609 18.0348C40.4609 16.351 41.6519 15.2012 43.2945 15.2012C45.0604 15.2012 46.0871 16.3921 46.0871 18.0348C46.0871 19.7185 44.9783 20.8684 43.2535 20.8684Z" fill="#FE9900"/>
<path d="M31.7421 36.7613H21.9271L19.6685 43.5373C19.5863 43.7837 19.4631 43.8658 19.2167 43.8658H15.1101C14.8637 43.8658 14.7815 43.7426 14.8226 43.4551L23.2823 19.3901C23.4466 18.9794 23.5698 18.5687 23.6519 17.1725C23.6519 17.0082 23.7341 16.885 23.8983 16.885H29.6066C29.8119 16.885 29.853 16.9261 29.8941 17.1314L39.3805 43.4962C39.4215 43.7426 39.3805 43.8658 39.1341 43.8658H34.5346C34.3293 43.8658 34.2061 43.7837 34.1239 43.6194L31.7421 36.7613ZM23.2413 32.285H30.4279C29.5655 29.5746 27.6354 23.8663 26.8141 20.9917H26.773C26.1159 23.7431 24.4733 28.5479 23.2413 32.285Z" fill="#FE9900"/>
</g>
<defs>
<clipPath id="clip0_66_103">
<rect width="61.6" height="60" fill="white" transform="translate(0.600098 0.334961)"/>
</clipPath>
</defs>
</svg>
