<svg width="61" height="61" viewBox="0 0 61 61" fill="none" xmlns="http://www.w3.org/2000/svg">
<g clip-path="url(#clip0_66_117)">
<path d="M13.7998 0.334961H47.7998C54.9248 0.334961 60.7998 6.20996 60.7998 13.335V47.335C60.7998 54.46 54.9248 60.335 47.7998 60.335H13.7998C6.6748 60.335 0.799805 54.46 0.799805 47.335V13.335C0.799805 6.20996 6.6748 0.334961 13.7998 0.334961Z" fill="#FFD02F"/>
<path fill-rule="evenodd" clip-rule="evenodd" d="M42.4248 7.83496H35.7998L41.2998 17.46L29.2998 7.83496H22.6748L28.6748 19.585L16.1748 7.83496H9.5498L16.1748 22.835L9.5498 52.835H16.1748L28.7998 20.71L22.6748 52.835H29.2998L41.4248 18.585L35.9248 52.835H42.5498L54.5498 15.335L42.4248 7.83496Z" fill="#050038"/>
</g>
<defs>
<clipPath id="clip0_66_117">
<rect width="60" height="60" fill="white" transform="translate(0.799805 0.334961)"/>
</clipPath>
</defs>
</svg>
