<svg width="62" height="61" viewBox="0 0 62 61" fill="none" xmlns="http://www.w3.org/2000/svg">
<g clip-path="url(#clip0_66_96)">
<path d="M50.6917 60.335H10.9083C4.87667 60.335 0 55.4632 0 49.4375V11.2324C0 5.20676 4.87667 0.334961 10.9083 0.334961H50.6917C56.7233 0.334961 61.6 5.20676 61.6 11.2324V49.4375C61.6 55.4632 56.7233 60.335 50.6917 60.335Z" fill="#30A8F9"/>
<path d="M49.7166 57.771H11.8839C6.75056 57.771 2.56689 53.5915 2.56689 48.4633V12.2069C2.56689 7.07866 6.75056 2.89917 11.8839 2.89917H49.6909C54.8499 2.89917 59.0079 7.07866 59.0079 12.2069V48.4376C59.0336 53.5915 54.8499 57.771 49.7166 57.771Z" fill="#001E38"/>
<path d="M47.0803 28.2933C45.8072 27.5952 43.7539 27.1024 41.9469 27.1024C39.7704 27.1024 39.0312 28.0058 39.0312 28.8682C39.0312 29.7717 39.6472 30.3877 42.2755 31.4144C46.9571 33.1392 48.5587 34.9872 48.5587 37.9029C48.5587 41.7632 45.5197 44.1861 40.4685 44.1861C38.0456 44.1861 35.9101 43.7344 34.6781 43.0362C34.4728 42.913 34.3907 42.8309 34.3907 42.5845V38.6832C34.3907 38.4778 34.5549 38.3957 34.7192 38.4778C36.4851 39.6277 38.7437 40.1205 40.5917 40.1205C42.7272 40.1205 43.7539 39.3813 43.7539 38.3136C43.7539 37.2869 42.9736 36.6298 40.4275 35.6032C35.9512 33.9605 34.3496 32.1125 34.3496 29.1557C34.3496 26.0346 36.8957 23.1189 42.0291 23.1189C44.4109 23.1189 46.2179 23.4474 47.2035 23.9402C47.4088 24.0634 47.4499 24.2277 47.4499 24.433V28.0469C47.4499 28.2522 47.3267 28.3754 47.0803 28.2933Z" fill="#30A8F9"/>
<path d="M14.3804 43.4879V17.1641C14.3804 16.9588 14.4625 16.8356 14.6678 16.8356C16.2284 16.7945 19.2673 16.7124 22.2652 16.7124C30.2321 16.7124 33.1889 21.1476 33.1889 25.6649C33.1889 32.1945 28.1377 35.0281 21.9366 35.0281C20.6225 35.0281 20.294 35.0281 19.3494 35.0281V43.4468C19.3494 43.6521 19.2673 43.7753 19.0209 43.7753H14.7089C14.5036 43.7753 14.3804 43.6932 14.3804 43.4879ZM19.3494 21.1065V30.634C20.0476 30.6751 20.5814 30.6751 21.9366 30.6751C25.3862 30.6751 28.302 29.5252 28.302 25.7881C28.302 22.7903 26.1665 21.0244 22.3884 21.0244C20.951 21.0244 19.8012 21.0655 19.3494 21.1065Z" fill="#30A8F9"/>
</g>
<defs>
<clipPath id="clip0_66_96">
<rect width="61.6" height="60" fill="white" transform="translate(0 0.334961)"/>
</clipPath>
</defs>
</svg>
