<svg width="124" height="40" viewBox="0 0 124 40" fill="none" xmlns="http://www.w3.org/2000/svg">
<g clip-path="url(#clip0_66_146)">
<path d="M89.2609 12.5491C89.7718 12.5491 90.1926 12.3681 90.5533 12.0061C90.8839 11.6441 91.0643 11.2218 91.0643 10.7392C91.0643 10.2565 90.8839 9.83418 90.5232 9.47219C90.1926 9.11019 89.7718 8.9292 89.2909 8.9292C88.78 8.9292 88.3592 9.11019 87.9985 9.44202C87.6379 9.77384 87.4575 10.2263 87.4575 10.7392C87.4575 11.2218 87.6379 11.6441 87.9985 12.0061C88.3291 12.3681 88.7499 12.5491 89.2609 12.5491Z" fill="#333333"/>
<path d="M62.9915 15.4448C60.9477 15.4448 59.2946 16.2593 58.0022 17.8581C56.8901 19.2759 56.3491 21.1462 56.3491 23.469C56.3491 25.7917 56.8901 27.662 58.0022 29.0798C59.2646 30.7088 60.8876 31.4931 62.8713 31.4931C64.9753 31.4931 66.6584 30.6786 67.9208 29.0798C69.0328 27.662 69.5739 25.7616 69.5739 23.4388C69.5739 21.1462 69.0328 19.2759 67.9208 17.8581C66.6885 16.2593 65.0354 15.4448 62.9915 15.4448ZM62.9915 30.4373C61.8194 30.4373 60.9778 29.8943 60.4368 28.8083C59.8356 27.5715 59.5351 25.7314 59.5351 23.3181C59.5351 20.392 60.016 18.4312 60.9778 17.4358C61.5789 16.8325 62.2401 16.5308 62.9915 16.5308C63.4724 16.5308 63.9233 16.6515 64.314 16.8928C64.9151 17.2548 65.366 17.7978 65.6665 18.4916C66.1775 19.6077 66.4179 21.2668 66.4179 23.4086C66.4179 28.1145 65.2758 30.4373 62.9915 30.4373Z" fill="#333333"/>
<path d="M78.9818 15.5957C77.8998 15.5957 76.9681 15.9275 76.1565 16.561C75.7057 16.923 75.3751 17.4056 75.0745 18.0391V8.86865L70.3857 9.07981V10.1055H70.6262C71.2574 10.1055 71.6782 10.2261 71.8886 10.4976C72.1591 10.7993 72.2793 11.5233 72.2793 12.7299V27.7827C72.2793 29.1401 72.2192 30.015 72.129 30.4674C72.129 30.5278 72.0689 30.7088 71.9487 31.0406H73.0307C73.2711 30.6484 73.5116 30.2864 73.722 29.9848C73.9624 29.653 74.1728 29.472 74.3532 29.472C74.5034 29.472 74.7138 29.5625 74.9242 29.7435C75.4652 30.1959 75.856 30.4976 76.0063 30.5881C76.8178 31.1009 77.7195 31.3724 78.6813 31.3724C80.4846 31.3724 81.9273 30.6183 83.0093 29.1401C84.1815 27.5413 84.7827 25.5504 84.7827 23.1975C84.7827 20.7239 84.1214 18.7329 82.799 17.2548C81.8672 16.1386 80.5447 15.5957 78.9818 15.5957ZM78.4108 30.2261C77.8397 30.2261 77.3287 30.0753 76.8779 29.7736C76.3369 29.4116 75.9161 28.929 75.6155 28.2955C75.0745 27.119 74.804 25.4599 74.804 23.3181C74.804 20.5429 75.3751 18.6424 76.5473 17.5564C77.1784 17.0134 77.8397 16.7118 78.561 16.7118C79.5829 16.7118 80.3344 17.2548 80.8453 18.3106C81.3863 19.4569 81.6568 21.116 81.6568 23.2276C81.6568 27.9033 80.5748 30.2261 78.4108 30.2261Z" fill="#333333"/>
<path d="M112.013 28.8687C111.262 29.7736 110.3 30.2261 109.188 30.2261C107.746 30.2261 106.724 29.5021 106.122 28.0843C105.702 27.0587 105.461 25.4901 105.461 23.3785H114.418C114.358 21.5685 114.027 20.0602 113.396 18.8536C112.254 16.5911 110.571 15.4448 108.317 15.4448C106.814 15.4448 105.491 16.0481 104.439 17.2548C103.087 18.7932 102.396 20.8144 102.396 23.3785C102.396 26.1537 103.087 28.2653 104.439 29.7435C105.551 30.9199 106.934 31.5233 108.677 31.5233C111.022 31.5233 112.885 30.1356 114.238 27.3604L113.246 26.8475C112.855 27.6922 112.434 28.386 112.013 28.8687ZM105.822 19.4267C106.333 17.5564 107.235 16.5911 108.497 16.5911C109.609 16.5911 110.451 17.3453 110.962 18.8837C111.262 19.7585 111.382 20.8445 111.382 22.202H105.461C105.491 21.116 105.612 20.1809 105.822 19.4267Z" fill="#333333"/>
<path d="M99.6003 29.6228C99.3298 29.3211 99.2095 28.567 99.2095 27.3604V8.86865L94.4005 9.07981V10.1055H94.7612C95.3924 10.1055 95.8132 10.2261 96.0236 10.4976C96.2941 10.7993 96.4143 11.5534 96.4143 12.7299V27.3302C96.4143 28.5368 96.2941 29.291 96.0236 29.5926C95.8132 29.8641 95.3924 29.9848 94.7612 29.9848H94.2202V31.0104H101.374V29.9848H100.833C100.262 30.015 99.8407 29.8943 99.6003 29.6228Z" fill="#333333"/>
<path d="M91.3049 29.6227C91.0344 29.321 90.9141 28.5669 90.9141 27.3602V15.686L86.1051 15.8972V16.9228H86.4658C87.097 16.9228 87.5178 17.0435 87.7282 17.315C87.9987 17.6167 88.1189 18.3708 88.1189 19.5473V27.3602C88.1189 28.5669 87.9987 29.321 87.7282 29.6227C87.5178 29.8942 87.0669 30.0148 86.4658 30.0148H85.9248V31.0405H93.0782V30.0148H92.5372C91.936 30.0148 91.5153 29.8942 91.3049 29.6227Z" fill="#333333"/>
<path d="M44.8375 25.249L40.1488 9.11024H33.8069V10.1661H34.408C34.8889 10.1661 35.2797 10.1962 35.5201 10.2867C35.971 10.4375 36.2415 10.7694 36.3617 11.2822C36.4218 11.5235 36.4519 12.0062 36.4519 12.7905V25.4903C36.4519 26.6668 36.4218 27.5114 36.3316 28.0243C36.2114 28.6879 36.001 29.1706 35.6403 29.4722C35.2496 29.8041 34.7988 29.9851 34.3179 29.9851H33.7769V31.0409H40.5395V29.9851H40.1187C38.9465 29.9851 38.1951 29.4119 37.8645 28.2656C37.7443 27.8433 37.7142 26.9081 37.7142 25.4903V11.1012L43.485 31.0409H44.5069L50.2777 11.1012V26.7573C50.2777 27.5114 50.2477 28.1148 50.1875 28.5673C50.1575 28.9594 50.0072 29.2611 49.7968 29.4722C49.4662 29.8041 48.8651 29.9549 48.0536 29.9549H47.783V31.0107H55.9884V29.9549H55.5375C54.3954 29.9549 53.7342 29.6231 53.4937 28.9292C53.3735 28.5673 53.3134 27.8131 53.3134 26.697V13.3938C53.3134 12.6397 53.3434 12.0363 53.4036 11.5537C53.4336 11.1615 53.5839 10.8599 53.7943 10.6487C54.1249 10.3169 54.696 10.1359 55.5375 10.1359H55.9884V9.08008H49.5864L44.8375 25.249Z" fill="#333333"/>
<path d="M27.6155 19.1855H23.1973V23.6199H27.6155V19.1855Z" fill="#333333"/>
<path d="M18.6589 31.0409H24.039V29.8041C23.4378 29.8041 23.017 29.8041 22.7766 29.7739C21.935 29.6834 21.364 29.4722 21.0033 29.1102C20.5825 28.6879 20.4022 27.7829 20.4022 26.3651V20.4225V10.1661C22.2356 10.2264 23.6482 10.8297 24.6701 11.976C25.6319 13.0921 26.2331 14.7814 26.4735 17.0439L27.6457 16.8327L27.4353 9.08008H9.91254L9.70215 16.8327L10.8743 17.0439C11.0847 14.7513 11.6859 13.062 12.6777 11.976C13.6996 10.8297 15.1123 10.2264 16.9457 10.1661V20.4225V26.3651C16.9457 27.7829 16.7353 28.6879 16.3446 29.1102C15.9839 29.4722 15.4128 29.6834 14.5713 29.7739C14.3308 29.8041 13.91 29.8041 13.3089 29.8041V31.0409H18.6589Z" fill="#333333"/>
<path d="M14.1204 19.1855H9.70215V23.6199H14.1204V19.1855Z" fill="#333333"/>
<path d="M116.492 16.32C116.492 16.9233 116.071 17.3758 115.47 17.3758C114.869 17.3758 114.448 16.9233 114.448 16.32C114.448 15.7166 114.899 15.2642 115.47 15.2642C116.041 15.2642 116.492 15.7166 116.492 16.32ZM116.281 16.32C116.281 15.8373 115.921 15.4452 115.44 15.4452C114.959 15.4452 114.598 15.8071 114.598 16.32C114.598 16.8328 114.959 17.1948 115.44 17.1948C115.951 17.1948 116.281 16.8026 116.281 16.32ZM115.65 16.4406L115.89 16.8026H115.68L115.47 16.4406H115.289V16.8026H115.109V15.8071H115.53C115.74 15.8071 115.89 15.9278 115.89 16.1088C115.89 16.2898 115.8 16.3803 115.65 16.4406ZM115.289 16.2596H115.53C115.65 16.2596 115.71 16.2295 115.71 16.1088C115.71 16.0183 115.65 15.958 115.53 15.958H115.289V16.2596Z" fill="#333333"/>
</g>
<defs>
<clipPath id="clip0_66_146">
<rect width="122.449" height="40" fill="white" transform="translate(0.835449)"/>
</clipPath>
</defs>
</svg>
